<?xml version="1.0" encoding="utf-8"?>
<!-- Generator: Adobe Illustrator 18.1.1, SVG Export Plug-In . SVG Version: 6.00 Build 0)  -->
<svg version="1.1" id="Layer_1" xmlns="http://www.w3.org/2000/svg" xmlns:xlink="http://www.w3.org/1999/xlink" x="0px" y="0px"
	 viewBox="0 0 240.391 226.414" enable-background="new 0 0 240.391 226.414" xml:space="preserve">
<defs>
	
	<script  language="JavaScript" xlink:href="svg.js"></script>
</defs>
<script  type="text/JavaScript">
	<![CDATA[
function notify( ref, type ) {
    var event = document.createEvent("CustomEvent");
    event.initEvent(type,true,true);
    ref.dispatchEvent(event);
}

		
		
		
		
		
		
		
		
		
		
		
		]]>
</script>
<g>
	<g>
		<g>
			<path fill="#EA8E10" d="M168.026,16.669c-13.312-2.005-30.541-3.215-49.379-3.215c-17.388,0-33.399,1.03-46.229,2.765V40.46
				H36.65v93.13H203.79V40.91h-35.765V16.669L168.026,16.669z"/>
		</g>
		<path fill="#231F20" d="M168.026,47.872V16.768c18.291,3.174,30.136,8.172,30.136,13.814c3.104,0,5.629,2.596,5.629,5.802v11.488
			H168.026z"/>
		<path fill="#231F20" d="M72.415,47.374V16.269C54.124,19.444,42.28,24.442,42.28,30.084c-3.105,0-5.632,2.594-5.632,5.801v11.488
			L72.415,47.374L72.415,47.374z"/>
	</g>
	<path fill="#F5A909" d="M213.098,132.777c-4.225-4.224-12.777-4.512-19.145-8.106c-25.554-14.445-43.263-19.029-73.162-19.029
		c-0.188,0-0.381,0.002-0.568,0.004c-0.188-0.001-0.385-0.004-0.569-0.004c-29.899,0-47.606,4.584-73.161,19.029
		c-6.367,3.597-14.923,3.886-19.146,8.106c-12.045,12.046-4.393,37.98-4.393,37.98c0,0.695,0.555,1.248,1.241,1.248h96.024h96.027
		c0.688,0,1.244-0.553,1.244-1.248C217.49,170.756,225.145,144.823,213.098,132.777z"/>
	<path fill="#F5A909" d="M143.329,14.193c0-2.861-9.302-9.327-23.238-9.327c-13.922,0-22.979,6.466-22.979,9.327"/>
	<path fill="#231F20" d="M216.016,172.004h-18.505h-39.844h-75.73H42.691H24.429c-0.729,0-1.311,0.83-1.311,1.861l3.521,8.496
		c0,1.078,0.562,1.967,1.252,1.967h13.404v26.131c0,0.854,0.625,1.549,1.395,1.549h39.246c0.768,0,1.393-0.694,1.393-1.549v-16.332
		h72.936v16.332c0,0.854,0.619,1.549,1.404,1.549h39.844c0.779,0,1.398-0.694,1.398-1.549v-26.131h13.629
		c0.699,0,1.266-0.889,1.266-1.967l3.518-8.496C217.321,172.835,216.729,172.004,216.016,172.004z"/>
	<path fill="#12100B" stroke="#4D4947" stroke-width="6" d="M162.682,155.443c0,3.901-3.162,7.063-7.063,7.063H84.823
		c-3.902,0-7.064-3.162-7.064-7.063v-26.56c0-3.907,3.162-7.069,7.064-7.069h70.795c3.901,0,7.063,3.162,7.063,7.069V155.443
		L162.682,155.443z"/>
	<path fill="#D0D0D0" stroke="#231F20" stroke-width="4" d="M213.374,147.778c0,8.426-6.817,15.258-15.256,15.258
		c-8.41,0-15.248-6.83-15.248-15.258c0-8.424,6.838-15.255,15.248-15.255C206.557,132.524,213.374,139.354,213.374,147.778z"/>
	<path fill="#FFFFFF" stroke="#231F20" stroke-width="2" d="M207.565,147.778c0,5.217-4.222,9.443-9.442,9.443
		c-5.207,0-9.439-4.229-9.439-9.443c0-5.214,4.232-9.441,9.439-9.441C203.343,138.336,207.565,142.564,207.565,147.778z"/>
	<path fill="#D0D0D0" stroke="#231F20" stroke-width="4" d="M57.571,147.778c0,8.426-6.817,15.258-15.259,15.258
		c-8.409,0-15.248-6.83-15.248-15.258c0-8.424,6.839-15.255,15.248-15.255C50.751,132.524,57.571,139.354,57.571,147.778z"/>
	<path fill="#FFFFFF" stroke="#231F20" stroke-width="2" d="M51.757,147.778c0,5.217-4.221,9.443-9.443,9.443
		c-5.207,0-9.438-4.229-9.438-9.443c0-5.214,4.23-9.441,9.438-9.441C47.538,138.336,51.757,142.564,51.757,147.778z"/>
	<line fill="none" stroke="#4D4947" stroke-width="5" x1="79.828" y1="138.493" x2="160.614" y2="138.493"/>
	<line fill="none" stroke="#4D4947" stroke-width="5" x1="79.828" y1="130.113" x2="160.614" y2="130.113"/>
	<line fill="none" stroke="#4D4947" stroke-width="5" x1="79.828" y1="146.874" x2="160.614" y2="146.874"/>
	<line fill="none" stroke="#4D4947" stroke-width="5" x1="79.828" y1="155.254" x2="160.614" y2="155.254"/>
	<g>
		<path fill="#FFFFFF" d="M115.517,91.793c0,0.688-0.555,1.249-1.244,1.249H43.56c-0.688,0-1.246-0.562-1.246-1.249V57.367
			c0-0.688,0.56-1.25,1.246-1.25h70.713c0.689,0,1.244,0.562,1.244,1.25V91.793z"/>
		<path fill="#FFFFFF" d="M198.12,91.793c0,0.688-0.556,1.249-1.242,1.249h-70.701c-0.692,0-1.264-0.562-1.264-1.249V57.367
			c0-0.688,0.567-1.25,1.264-1.25h70.701c0.688,0,1.242,0.562,1.242,1.25V91.793z"/>
	</g>
	<path fill="none" stroke="#13110C" stroke-width="6" d="M185.608,93.131c0-9.027-9.754-15.581-18.487-15.581
		c-8.732,0-18.476,6.668-18.476,15.581"/>
	<g>
		<path fill="#231F20" d="M28.247,86.558c0,0.682-0.549,1.243-1.236,1.243H10.199c-0.684,0-1.248-0.562-1.248-1.243V62.517
			c0-0.689,0.564-1.243,1.248-1.243h16.811c0.689,0,1.236,0.554,1.236,1.243V86.558z"/>
		<path fill="none" stroke="#13110C" stroke-width="6" d="M18.601,87.801c0,5.763,7.994,10.417,17.886,10.417"/>
	</g>
	<g>
		<path fill="#231F20" d="M212.143,86.558c0,0.682,0.565,1.243,1.241,1.243h16.812c0.677,0,1.242-0.562,1.242-1.243V62.517
			c0-0.689-0.565-1.243-1.242-1.243h-16.812c-0.676,0-1.241,0.554-1.241,1.243V86.558z"/>
		<path fill="none" stroke="#13110C" stroke-width="6" d="M221.794,87.801c0,5.763-7.994,10.417-17.883,10.417"/>
	</g>
	<path fill="#E30613" stroke="#DD1215" stroke-width="0.2339" d="M173.449,34.682c0,5.866,4.735,10.608,10.596,10.608
		c5.854,0,10.603-4.742,10.603-10.608c0-5.839-4.748-10.596-10.603-10.596C178.186,24.086,173.449,28.843,173.449,34.682z"/>
	<path fill="#E30613" stroke="#DD1215" stroke-width="0.2339" d="M44.56,34.682c0,5.866,4.744,10.608,10.584,10.608
		c5.863,0,10.613-4.742,10.613-10.608c0-5.839-4.75-10.596-10.613-10.596C49.304,24.086,44.56,28.843,44.56,34.682z"/>
</g>
<g>
	<path d="M74.525,24.132c0.953-0.173,2.46-0.303,3.989-0.303c2.183,0,3.587,0.324,4.643,1.06c0.878,0.562,1.402,1.427,1.402,2.573
		c0,1.406-1.078,2.638-2.857,3.2v0.043c1.604,0.346,3.484,1.492,3.484,3.654c0,1.254-0.575,2.206-1.43,2.919
		c-1.179,0.93-3.085,1.362-5.845,1.362c-1.505,0-2.659-0.086-3.389-0.173L74.525,24.132L74.525,24.132z M76.707,30.099h1.979
		c2.311,0,3.663-1.038,3.663-2.443c0-1.708-1.505-2.378-3.713-2.378c-1.003,0-1.58,0.065-1.932,0.13L76.707,30.099L76.707,30.099z
		 M76.707,37.083c0.427,0.065,1.054,0.087,1.831,0.087c2.258,0,4.34-0.714,4.34-2.833c0-1.989-1.981-2.811-4.364-2.811h-1.807
		V37.083L76.707,37.083z"/>
	<path d="M90.305,23.937v8.627c0,3.265,1.682,4.648,3.938,4.648c2.509,0,4.112-1.427,4.112-4.648v-8.627h2.207v8.498
		c0,4.476-2.732,6.313-6.396,6.313c-3.462,0-6.07-1.708-6.07-6.227v-8.584H90.305z"/>
	<path d="M104.053,36.218c0.979,0.519,2.408,0.952,3.913,0.952c2.232,0,3.537-1.017,3.537-2.487c0-1.362-0.903-2.141-3.188-2.897
		c-2.76-0.843-4.465-2.076-4.465-4.13c0-2.271,2.184-3.957,5.469-3.957c1.73,0,2.984,0.346,3.737,0.714l-0.603,1.535
		c-0.553-0.26-1.683-0.692-3.211-0.692c-2.31,0-3.188,1.189-3.188,2.184c0,1.362,1.028,2.032,3.361,2.811
		c2.858,0.951,4.312,2.14,4.312,4.281c0,2.249-1.932,4.195-5.92,4.195c-1.631,0-3.411-0.411-4.312-0.93L104.053,36.218z"/>
	<path d="M121.889,31.959v1.405h-6.194v-1.405H121.889z"/>
	<rect x="124.913" y="22.47" fill="none" width="42.579" height="18.703"/>
	<text transform="matrix(1 0 0 1 124.9135 38.7999)" font-family="'MyriadPro-Regular'" font-size="23">CRN</text>
</g>
<g>
	<path fill="#010200" d="M87.015,80.131c-0.013,0.012-0.026,0.024-0.039,0.036c-0.049,0.036-0.097,0.073-0.141,0.114l0.002-0.001
		c-0.084,0.052-0.182,0.081-0.259,0.146c-0.221,0.025-0.278,0.15-0.273,0.364c0.017,0.789,0.015,1.579,0.019,2.369
		c0.001,0.119,0.039,0.182,0.171,0.206c0.296,0.053,0.49,0.206,0.619,0.511c0.389,0.92,0.609,1.877,0.733,2.861
		c0.01,0.079,0.043,0.116,0.109,0.148c0.544,0.261,1.01,0.625,1.404,1.081c0.064,0.073,0.124,0.077,0.208,0.05
		c0.805-0.256,1.583-0.165,2.293,0.273c1.322,0.814,2.266,1.943,2.732,3.444c0.117,0.377,0.207,0.761,0.253,1.153
		c0.005,0.047,0.09,0.137-0.039,0.153c-0.109,0.014-0.091-0.077-0.099-0.136c-0.104-0.732-0.309-1.434-0.653-2.09
		c-0.571-1.089-1.4-1.926-2.483-2.508c-0.215-0.116-0.451-0.177-0.689-0.227c-0.317-0.078-0.634-0.072-0.95,0.001
		c-0.852,0.166-1.447,0.701-1.944,1.366c-0.562,0.751-0.852,1.618-1.038,2.525c-0.066,0.321-0.117,0.644-0.146,0.97
		c-0.006,0.062-0.014,0.106-0.091,0.101c-0.095-0.006-0.06-0.073-0.056-0.121c0.031-0.399,0.112-0.792,0.182-1.185
		c0.025-0.139,0.047-0.278,0.104-0.408c0.2-0.682,0.458-1.338,0.881-1.918c0.364-0.5,0.788-0.934,1.345-1.222
		c0.082-0.042,0.128-0.069,0.041-0.162c-0.363-0.389-0.772-0.714-1.242-0.965c-0.121-0.065-0.179-0.042-0.231,0.08
		c-0.042,0.099-0.1,0.193-0.196,0.254c-0.045,0.018-0.075,0.055-0.106,0.089c-0.105,0.113-0.118,0.039-0.122-0.058
		c0.025-0.098,0.092-0.169,0.153-0.245c0.147-0.184,0.209-0.382,0.168-0.626c-0.126-0.756-0.288-1.503-0.55-2.225
		c-0.01-0.028-0.016-0.059-0.049-0.083c-0.525,0.826-1.37,1.223-2.203,1.634c-0.72,0.355-1.472,0.634-2.225,0.91
		c-0.205,0.075-0.419,0.124-0.593,0.265c-0.009,0.002-0.018,0.003-0.027,0.005c-0.333,0.47-0.606,0.975-0.888,1.475
		c-0.503,0.891-0.952,1.81-1.383,2.738c-0.023,0.05-0.024,0.131-0.113,0.115c-0.075-0.014-0.059-0.083-0.067-0.133
		c-0.159-1.004-0.539-1.945-0.829-2.911c-0.059-0.197-0.132-0.39-0.186-0.588c-0.039-0.143-0.098-0.172-0.21-0.07
		c-0.108-0.022-0.122-0.048-0.028-0.131c0.122-0.108,0.136-0.221,0.064-0.355c-0.008-0.016-0.026-0.025-0.039-0.037
		c-0.066-0.06-0.09-0.142-0.115-0.222c-0.092-0.288-0.229-0.559-0.327-0.845c-0.022-0.064-0.065-0.115-0.111-0.164
		c-0.033-0.037-0.062-0.04-0.085,0.011c-0.473,0.92-0.819,1.891-1.17,2.861c-0.018,0.051-0.043,0.101-0.043,0.157
		c0.078,0.132,0.046,0.174-0.14,0.185c-0.123-0.048-0.089-0.144-0.061-0.228c0.104-0.31,0.216-0.617,0.321-0.927
		c0.015-0.043,0.067-0.09,0.029-0.133c-0.04-0.046-0.089,0.002-0.132,0.017c-1.458,0.477-2.483,1.455-3.194,2.786
		c-0.378,0.708-0.593,1.471-0.699,2.265c-0.008,0.061-0.004,0.127-0.096,0.118c-0.111-0.011-0.057-0.094-0.05-0.138
		c0.042-0.269,0.094-0.537,0.142-0.806c0.041-0.133,0.063-0.272,0.108-0.404c0.206-0.611,0.462-1.198,0.836-1.728
		c0.772-1.094,1.755-1.905,3.063-2.279c0.107-0.031,0.151-0.1,0.188-0.197c0.246-0.626,0.5-1.249,0.842-1.831
		c0.097-0.164,0.215-0.281,0.403-0.339c0.26-0.082,0.506-0.203,0.737-0.349c0.052-0.033,0.177-0.046,0.117-0.141
		c-0.061-0.097-0.048-0.279-0.253-0.253c-0.143,0.018-0.292,0.009-0.436-0.005c-0.515-0.049-0.779-0.34-0.783-0.856
		c-0.001-0.145-0.064-0.203-0.212-0.201c-0.425,0.006-0.85,0.019-1.266-0.1c-0.599-0.172-0.804-0.627-0.482-1.16
		c0.178-0.294,0.253-0.587,0.239-0.928c-0.023-0.573,0.096-1.123,0.377-1.629c0.05-0.089,0.024-0.125-0.049-0.172
		c-0.241-0.155-0.385-0.379-0.448-0.657c-0.101-0.384-0.119-0.769,0.001-1.153c0.12-0.468,0.329-0.633,0.794-0.61
		c0.092,0.005,0.136-0.009,0.142-0.103c0.002-0.03,0.01-0.06,0.018-0.089c0.047-0.19,0.014-0.321-0.175-0.445
		c-0.433-0.284-0.64-0.726-0.741-1.223c-0.07-0.365-0.086-0.731,0-1.096c0.085-0.334,0.226-0.64,0.462-0.896
		c0.072-0.078,0.023-0.128-0.015-0.19c-0.165-0.276-0.261-0.568-0.139-0.884c0.106-0.274,0.329-0.455,0.585-0.573
		c0.201-0.092,0.252-0.234,0.287-0.433c0.177-1.001,0.499-1.948,1.096-2.784c0.684-0.958,1.629-1.533,2.754-1.805
		c0.428-0.103,0.751-0.29,1.061-0.608c0.823-0.845,1.82-1.029,2.922-0.607c0.106,0.041,0.202,0.027,0.302,0.015
		c0.776-0.095,1.421,0.173,1.949,0.727c0.454,0.477,0.518,1.062,0.408,1.683c-0.012,0.066-0.011,0.138-0.041,0.195
		c-0.142,0.27-0.046,0.483,0.1,0.729c0.651,1.096,0.873,2.286,0.708,3.55c-0.004,0.03-0.002,0.06-0.003,0.09
		c-0.038,0.196-0.029,0.4-0.105,0.589c-0.219,0.822-0.436,1.644-0.626,2.473c-0.035,0.108-0.001,0.23-0.063,0.333
		c-0.014,0.03-0.037,0.056-0.042,0.09c-0.001,0.006-0.004,0.012-0.003,0.016c0.001,0.013,0.004,0.011,0.008-0.007
		c0.045-0.104,0.107-0.195,0.179-0.28c0.106-0.176,0.207-0.356,0.319-0.527c0.055-0.083,0.124-0.201,0.24-0.154
		c0.117,0.047,0.081,0.185,0.063,0.277c-0.047,0.237-0.115,0.47-0.179,0.703c-0.13,0.472-0.262,0.944-0.396,1.416
		c-0.016,0.057-0.016,0.155-0.112,0.131c-0.095-0.023-0.056-0.101-0.037-0.165c0.07-0.244,0.139-0.489,0.208-0.733
		c0.073-0.153,0.083-0.324,0.14-0.482c0.026-0.107,0.053-0.213,0.079-0.32c0.018-0.083,0.039-0.165,0.055-0.249
		c-0.001-0.084,0.02-0.163,0.055-0.239c-0.043,0.093-0.147,0.136-0.187,0.23c-0.263,0.436-0.485,0.895-0.674,1.366
		c-0.073,0.182-0.077,0.391-0.113,0.588c-0.01,0.055,0.002,0.088,0.068,0.101c0.614,0.115,0.801,0.653,0.751,1.249
		c-0.018,0.216-0.041,0.436-0.142,0.636c-0.064,0.09-0.104,0.192-0.14,0.295l0.001-0.001c-0.11-0.005-0.11-0.006-0.077-0.159
		c0.006-0.017,0.014-0.034,0.022-0.05c0.064-0.092,0.08-0.196,0.081-0.305c0.032-0.295,0.105-0.586,0.03-0.886
		c-0.07-0.282-0.224-0.483-0.512-0.56c-0.278-0.074-0.528-0.027-0.741,0.181c-0.058,0.057-0.119,0.178-0.219,0.079
		c-0.092-0.091-0.011-0.18,0.055-0.252c0.078-0.086,0.169-0.159,0.281-0.197c0.142-0.049,0.188-0.147,0.188-0.294
		c0.003-0.661,0.08-1.32,0.083-1.981c0.047-0.138,0.018-0.282,0.037-0.435c-0.025,0.085-0.054,0.155-0.067,0.231
		c-0.102,0.283-0.219,0.561-0.335,0.838c-0.055,0.096-0.084,0.202-0.114,0.308c-0.203,0.566-0.435,1.121-0.655,1.681
		c-0.016,0.04-0.03,0.08-0.053,0.116c-0.04,0.065-0.09,0.129-0.174,0.09c-0.076-0.035-0.063-0.113-0.044-0.177
		c0.078-0.262,0.196-0.51,0.292-0.766c0.276-0.74,0.584-1.468,0.855-2.21c0.035-0.097,0.077-0.192,0.128-0.282
		c0.043-0.076,0.101-0.145,0.199-0.136c0.107,0.01,0.148,0.095,0.177,0.185c0.021,0.064,0.032,0.132,0.02,0.198
		c-0.045,0.235-0.033,0.473-0.028,0.709c0.008,0.371-0.056,0.737-0.045,1.091c0.184-0.726,0.368-1.472,0.555-2.217
		c0.119-0.477,0.244-0.953,0.36-1.432c0.223-0.927,0.287-1.859,0.056-2.796c-0.127-0.517-0.306-1.011-0.593-1.463
		c-0.046-0.073-0.079-0.144-0.197-0.086c-0.103,0.051-0.165-0.036-0.126-0.12c0.087-0.188-0.026-0.289-0.126-0.416
		c-0.149-0.189-0.331-0.339-0.52-0.481c-0.135-0.101-0.147-0.093-0.172,0.068c-0.012,0.078-0.022,0.157-0.052,0.23
		c-0.022,0.055-0.063,0.092-0.126,0.084c-0.068-0.008-0.084-0.063-0.09-0.119c-0.012-0.117,0.025-0.229,0.035-0.344
		c0.007-0.079,0.024-0.157-0.017-0.231c-0.033-0.076-0.096-0.112-0.174-0.126c-0.061-0.016-0.118-0.039-0.156-0.092
		c-0.018-0.032-0.033-0.065-0.008-0.1c0.061-0.048,0.117-0.015,0.175,0.008c0.031,0.015,0.061,0.031,0.09,0.049
		c0.035,0.014,0.065,0.067,0.107,0.031c0.032-0.027,0.006-0.065-0.014-0.095c-0.01-0.014-0.018-0.029-0.025-0.044
		c-0.111-0.394-0.27-0.758-0.568-1.057c-0.326-0.327-0.511-0.376-0.946-0.178c-0.276,0.126-0.538,0.275-0.771,0.472
		c-0.029,0.027-0.076,0.037-0.084,0.097c0.062,0.035,0.135,0.013,0.202,0.026c0.42,0.063,0.825,0.185,1.23,0.305
		c0.094,0.028,0.175,0.08,0.258,0.13c0.076,0.042,0.146,0.095,0.23,0.123c0.033,0.014,0.064,0.03,0.092,0.053
		c0.024,0.029,0.046,0.058,0.017,0.096c-0.03,0.027-0.066,0.031-0.104,0.029c-0.047-0.004-0.088-0.022-0.127-0.049
		c-0.11-0.079-0.235-0.115-0.368-0.127c-0.405-0.107-0.803-0.241-1.219-0.305c-1.204-0.186-2.389-0.129-3.533,0.32
		c-1.17,0.46-2.006,1.276-2.521,2.423c-0.288,0.642-0.48,1.312-0.592,2.004c-0.027,0.168-0.096,0.28-0.255,0.343
		c-0.119,0.048-0.221,0.125-0.321,0.206c-0.304,0.247-0.374,0.494-0.236,0.853c0.071,0.185,0.109,0.194,0.273,0.084
		c0.48-0.322,1.001-0.51,1.587-0.52c0.652-0.011,1.194,0.232,1.665,0.664c0.268,0.245,0.48,0.531,0.63,0.861
		c0.041,0.014,0.041,0.014,0.07-0.062c0.387-0.714,0.973-1.176,1.772-1.32c0.422-0.076,0.857-0.069,1.281,0.032
		c0.093,0.022,0.194,0.038,0.234,0.147c-0.026,0.129-0.106,0.078-0.181,0.058c-0.459-0.12-0.921-0.124-1.386-0.043
		c-0.052,0.009-0.109,0.017-0.15,0.059c-0.066,0.068-0.155,0.09-0.239,0.127c-0.404,0.177-0.733,0.446-0.985,0.809
		c-0.063,0.091-0.035,0.117,0.066,0.137c0.288,0.059,0.401,0.238,0.34,0.515c-0.055,0.249-0.28,0.381-0.545,0.319
		c-0.244-0.056-0.232-0.055-0.247,0.192c-0.037,0.602,0.142,1.126,0.542,1.573c0.237,0.265,0.528,0.463,0.846,0.621
		c0.093,0.072,0.204,0.089,0.316,0.102c0.324,0.083,0.654,0.106,0.987,0.092c0.086,0.018,0.201-0.03,0.237,0.102
		c-0.06,0.144-0.2,0.129-0.312,0.137c-0.639,0.051-1.23-0.096-1.758-0.469c-0.255-0.18-0.487-0.385-0.663-0.645
		c-0.079-0.118-0.158-0.144-0.286-0.072c-0.413,0.231-0.859,0.272-1.324,0.239c-0.29-0.021-0.583-0.004-0.861,0.106
		c-0.16,0.063-0.308,0.147-0.416,0.285c-0.233,0.295-0.348,0.619-0.177,0.982c0.182,0.386,0.518,0.552,0.926,0.575
		c0.595,0.034,1.189-0.036,1.784-0.038c0.798-0.003,1.578,0.121,2.279,0.482c1.252,0.645,2.079,1.628,2.231,3.092
		c0.112,1.076-0.3,1.957-1,2.712c-0.531,0.572-1.24,0.836-2.012,0.927c-0.578,0.068-1.15,0.053-1.717-0.096
		c-0.279-0.073-0.538-0.186-0.8-0.366c-0.044,0.271-0.088,0.518-0.125,0.766c-0.06,0.409-0.14,0.814-0.25,1.213
		c-0.068,0.248-0.068,0.477,0.015,0.728c0.252,0.767,0.502,1.535,0.737,2.308c0.07,0.232,0.113,0.472,0.163,0.725
		c0.503-1.114,1.065-2.186,1.678-3.231c0.142-0.241,0.293-0.476,0.434-0.717c0.109-0.186,0.288-0.273,0.481-0.339
		c0.783-0.267,1.549-0.575,2.301-0.917c0.492-0.224,0.967-0.481,1.42-0.781c0.17-0.113,0.238-0.224,0.219-0.442
		c-0.07-0.81-0.099-1.623-0.084-2.437c0.008-0.425-0.004-0.851,0.004-1.276c0.003-0.156-0.037-0.272-0.177-0.347
		c-0.064-0.074-0.127-0.149-0.205-0.209c-0.05-0.067-0.109-0.136,0.019-0.185c0.079,0.017,0.109,0.105,0.183,0.129
		c0.122,0.075,0.245,0.145,0.396,0.128c0.12-0.003,0.238-0.017,0.338-0.092c0.012-0.011,0.025-0.02,0.038-0.028
		c0.058-0.023,0.111-0.054,0.157-0.098c0.013-0.01,0.028-0.018,0.043-0.025C86.984,80.045,87.048,80.024,87.015,80.131z"/>
	<path fill="#050604" d="M87.342,87.421c0.022,0.011-0.04,0.123,0.052,0.047c0.045-0.037,0.079-0.085,0.146-0.075
		c-0.347,0.432-0.759,0.799-1.187,1.147c-0.992,0.809-2.089,1.45-3.247,1.99c-0.049,0.023-0.097,0.049-0.148,0.068
		c-0.195,0.074-0.316,0.006-0.351-0.202c-0.065-0.383-0.125-0.766-0.188-1.149c-0.043-0.256-0.065-0.515-0.104-0.772
		c-0.045-0.359-0.117-0.712-0.194-1.065c-0.028-0.128-0.185-0.2-0.135-0.352c0,0-0.006,0.003-0.006,0.003
		c0.1-0.067,0.172-0.025,0.229,0.061c0.057,0.087,0.09,0.185,0.111,0.286c0.023,0.15,0.054,0.299,0.096,0.445
		c0.115,0.614,0.188,1.235,0.271,1.854c0.023,0.174,0.063,0.346,0.088,0.521c0.028,0.193,0.074,0.218,0.256,0.138
		c0.456-0.201,0.891-0.442,1.323-0.69c0.781-0.449,1.515-0.965,2.196-1.555c0.211-0.183,0.396-0.393,0.598-0.586
		C87.203,87.483,87.247,87.407,87.342,87.421z"/>
	<path fill="#050604" d="M76.316,89.143c0.07-0.005,0.119-0.046,0.166-0.093c-0.029-0.038-0.101-0.004-0.109-0.07
		c0.444-0.271,0.863-0.58,1.274-0.896c0.222-0.171,0.408-0.392,0.609-0.592c0.055-0.055,0.074-0.122,0.062-0.199
		c-0.008-0.052-0.03-0.107,0.009-0.157c0.148,0.105,0.156,0.288,0.019,0.412c-0.087,0.079-0.087,0.079-0.036,0.136
		c-0.7,0.672-1.297,1.426-1.753,2.283c-0.418,0.784-0.898,1.54-1.171,2.395c-0.059,0.185-0.126,0.368-0.171,0.556
		c-0.026,0.11-0.07,0.146-0.188,0.107c0.191-0.738,0.469-1.44,0.844-2.106c0.377-0.67,0.724-1.357,1.154-1.995
		c0.02-0.029,0.045-0.056,0.067-0.083c0.024-0.02,0.044-0.053,0.023-0.074c-0.026-0.026-0.065-0.013-0.096,0.007
		c-0.157,0.108-0.312,0.218-0.47,0.325C76.481,89.144,76.407,89.189,76.316,89.143z"/>
	<path fill="#0F0F08" d="M87.015,80.131c-0.007-0.095-0.081-0.021-0.115-0.046c0.124-0.21,0.249-0.419,0.443-0.575
		c0.041,0.056-0.099,0.15,0.04,0.185C87.302,79.876,87.187,80.027,87.015,80.131z"/>
	<path fill="#1D1908" d="M75.56,77.715c0.028,0.093-0.013,0.181-0.035,0.264c-0.08,0.302,0.025,0.592,0.034,0.888
		C75.412,78.483,75.403,78.099,75.56,77.715z"/>
	<path fill="#B2B4B1" d="M75.598,74.149c-0.051,0.365-0.036,0.731,0,1.096c-0.125-0.227-0.058-0.474-0.069-0.713
		C75.523,74.403,75.505,74.264,75.598,74.149z"/>
	<path fill="#515350" d="M89.932,88.078c0.317-0.103,0.633-0.112,0.95-0.001C90.565,88.045,90.248,88.045,89.932,88.078z"/>
	<path fill="#CED0CD" d="M87.382,75.573c-0.051,0.107-0.101,0.215-0.152,0.322c-0.085-0.03-0.051-0.086-0.031-0.139
		c0.035-0.112,0.069-0.224,0.104-0.336C87.359,75.455,87.226,75.588,87.382,75.573z"/>
	<path fill="#B0B3B0" d="M82.316,88.476c0.065,0.253,0.104,0.51,0.104,0.772C82.337,88.997,82.316,88.738,82.316,88.476z"/>
	<path fill="#E4E5E2" d="M87.631,75.461c0.028-0.134,0.141-0.216,0.209-0.377c0.024,0.166-0.028,0.27-0.062,0.377
		c-0.006,0.014-0.016,0.017-0.029,0.008C87.725,75.258,87.667,75.524,87.631,75.461z"/>
	<path fill="#E4E6E2" d="M87.929,72.947c0.035-0.196,0.07-0.392,0.105-0.589C88.037,72.561,88.052,72.766,87.929,72.947z"/>
	<path fill="#414340" d="M87.629,76.038c-0.021,0.168-0.039,0.337-0.14,0.482C87.522,76.356,87.546,76.189,87.629,76.038z"/>
	<path fill="#B6B8B5" d="M72.685,91.691c-0.011,0.141-0.049,0.276-0.108,0.404C72.576,91.951,72.602,91.814,72.685,91.691z"/>
	<path fill="#C9CBC8" d="M86.942,91.326c-0.022,0.139-0.048,0.278-0.104,0.408C86.822,91.586,86.847,91.447,86.942,91.326z"/>
	<path fill="#0F0F08" d="M87.382,79.696c0.016-0.113,0.027-0.228,0.14-0.295C87.497,79.51,87.459,79.612,87.382,79.696z"/>
	<path fill="#C9CBC8" d="M77.021,88.772c0.004-0.005,0.007-0.011,0.012-0.013c0.049-0.023,0.092-0.122,0.143-0.062
		c0.044,0.051-0.027,0.109-0.082,0.143C77.094,88.791,77.059,88.781,77.021,88.772z"/>
	<path fill="#0F0F08" d="M86.578,80.425c0.061-0.094,0.156-0.127,0.259-0.146C86.766,80.355,86.685,80.414,86.578,80.425z"/>
	<path fill="#9B9D9A" d="M87.75,75.47c0.009-0.004,0.019-0.006,0.029-0.008c0.003,0.093-0.023,0.178-0.07,0.257
		C87.686,75.63,87.728,75.551,87.75,75.47z"/>
	<path fill="#0F0F08" d="M86.835,80.281c0.025-0.065,0.068-0.108,0.141-0.114C86.956,80.238,86.894,80.258,86.835,80.281z"/>
	<path fill="#EFB700" d="M87.343,79.51c-0.124,0.21-0.273,0.401-0.443,0.575c0,0,0.001,0,0.001,0
		c-0.047,0.059-0.11,0.093-0.18,0.116l0.001,0c-0.093,0.125-0.249,0.091-0.37,0.145c-0.161,0.004-0.311-0.026-0.432-0.143
		c-0.056-0.041-0.076-0.118-0.145-0.146c-0.133,0.04-0.042,0.098-0.011,0.151c0.063,0.062,0.121,0.129,0.191,0.184
		c0.213,0.068,0.216,0.22,0.213,0.418c-0.02,1.263-0.01,2.526,0.104,3.786c0.014,0.15-0.032,0.234-0.149,0.316
		c-0.665,0.465-1.394,0.808-2.138,1.123c-0.564,0.239-1.136,0.457-1.716,0.655c-0.214,0.073-0.374,0.203-0.496,0.402
		c-0.744,1.218-1.418,2.472-2.015,3.769c-0.027,0.058-0.04,0.126-0.103,0.172c-0.237-1.155-0.664-2.248-1.006-3.366
		c-0.043-0.14,0.003-0.253,0.033-0.371c0.173-0.683,0.303-1.374,0.38-2.075c0.008-0.071,0.011-0.155,0.11-0.08
		c0.429,0.327,0.929,0.436,1.45,0.472c0.691,0.047,1.372,0.003,2.022-0.267c0.926-0.385,1.513-1.096,1.813-2.023
		c0.453-1.402,0.046-2.606-0.979-3.616c-0.859-0.846-1.936-1.167-3.112-1.218c-0.656-0.028-1.31,0.053-1.966,0.045
		c-0.461-0.005-0.898-0.307-1.042-0.695c-0.158-0.423,0.118-1.052,0.625-1.246c0.311-0.119,0.635-0.149,0.964-0.118
		c0.466,0.043,0.91-0.024,1.314-0.269c0.111-0.067,0.159-0.063,0.237,0.049c0.432,0.621,1.014,1.023,1.769,1.139
		c0.317,0.049,0.641,0.063,0.956-0.032c0.052-0.06,0.13-0.06,0.198-0.084c0.903-0.32,1.54-0.901,1.738-1.864
		c0.162-0.787-0.044-1.484-0.602-2.079c-0.234-0.249-0.501-0.437-0.799-0.591c-0.049-0.025-0.098-0.048-0.134-0.091
		c-0.895-0.349-2.2-0.194-2.946,0.753c-0.113,0.143-0.216,0.291-0.305,0.45c-0.028,0.039-0.039,0.101-0.111,0.081
		c-0.387-0.798-0.974-1.365-1.872-1.51c-0.734-0.119-1.411,0.074-2.006,0.522c-0.132,0.1-0.187,0.101-0.262-0.056
		c-0.208-0.434-0.137-0.746,0.263-1.048c0.019-0.015,0.038-0.034,0.06-0.04c0.413-0.109,0.449-0.449,0.517-0.793
		c0.188-0.949,0.511-1.847,1.103-2.629c0.657-0.867,1.537-1.391,2.575-1.675c0.923-0.253,1.858-0.27,2.8-0.147
		c0.47,0.062,0.923,0.203,1.376,0.337c0.125,0.045,0.256,0.072,0.374,0.137c0.03,0.023,0.053,0.058,0.099,0.046
		c0.054,0.019,0.118,0.021,0.152,0.079c0.039,0.038,0.083,0.064,0.138,0.068c0.068,0.029,0.135,0.06,0.193,0.107
		c0.121,0.115,0.04,0.253,0.04,0.38c0,0.072-0.026,0.143-0.037,0.215c-0.007,0.051-0.039,0.121,0.04,0.135
		c0.08,0.014,0.096-0.058,0.106-0.119c0.018-0.108,0.037-0.216,0.047-0.324c0.009-0.097,0.037-0.119,0.121-0.055
		c0.281,0.211,0.539,0.446,0.76,0.722c0.065,0.081,0.094,0.148,0.035,0.243c-0.03,0.048-0.085,0.116-0.009,0.157
		c0.08,0.043,0.086-0.06,0.127-0.095c0.009-0.008,0.02-0.013,0.042-0.026c0.254,0.344,0.436,0.725,0.578,1.126
		c0.403,1.138,0.382,2.288,0.094,3.444c-0.299,1.201-0.606,2.4-0.908,3.6c-0.016,0.062-0.03,0.124-0.078,0.179
		c0-0.252-0.007-0.497,0.002-0.741c0.015-0.443,0.04-0.885,0.061-1.327c0.001-0.018,0.003-0.037-0.002-0.054
		c-0.025-0.092-0.03-0.213-0.144-0.23c-0.117-0.018-0.158,0.089-0.194,0.181c-0.26,0.667-0.52,1.333-0.78,2
		c-0.15,0.384-0.298,0.769-0.447,1.153c-0.024,0.061-0.075,0.141,0.003,0.176c0.099,0.045,0.115-0.062,0.139-0.124
		c0.233-0.585,0.464-1.172,0.695-1.758c0.051-0.092,0.067-0.198,0.11-0.293c0.109-0.279,0.219-0.558,0.328-0.837
		c0.043-0.054,0.032-0.136,0.103-0.196c0.04,0.135,0.033,0.257,0.01,0.381c-0.027,0.722-0.057,1.443-0.078,2.165
		c-0.003,0.093-0.047,0.112-0.111,0.134c-0.172,0.056-0.316,0.153-0.43,0.293c-0.035,0.042-0.076,0.094-0.022,0.143
		c0.066,0.06,0.091-0.013,0.124-0.051c0.251-0.285,0.561-0.345,0.909-0.227c0.313,0.106,0.496,0.398,0.514,0.787
		c0.011,0.245-0.036,0.483-0.074,0.722C87.421,79.314,87.41,79.422,87.343,79.51L87.343,79.51z"/>
	<path fill="#C1A76E" d="M77.606,84.07c-0.06-0.091-0.068-0.191-0.063-0.296c0.016-0.33-0.058-0.406-0.393-0.406
		c-0.418,0-0.837,0.022-1.243-0.112c-0.412-0.136-0.539-0.377-0.418-0.793c0.041-0.052,0.037-0.125,0.081-0.176
		c0.174-0.251,0.271-0.517,0.254-0.833c-0.028-0.553,0.057-1.09,0.31-1.591c0.323-0.642,0.836-1.074,1.494-1.346
		c0.054-0.022,0.102-0.036,0.155-0.005c0.296,0.176,0.622,0.183,0.953,0.168c0.612-0.028,1.225-0.081,1.837-0.035
		c1.34,0.101,2.487,0.597,3.289,1.718c0.55,0.769,0.787,1.651,0.552,2.572c-0.396,1.554-1.488,2.506-3.13,2.543
		c-0.45,0.01-0.898,0.003-1.335-0.126c-0.466-0.137-0.857-0.371-1.073-0.827c-0.053-0.112-0.133-0.103-0.225-0.097
		c-0.286,0.018-0.572,0.036-0.827-0.137C77.741,84.227,77.667,84.155,77.606,84.07z"/>
	<path fill="#FDFEFB" d="M82.279,87.423c-0.027-0.079-0.054-0.158-0.082-0.237c-0.037-0.104-0.1-0.162-0.217-0.125
		c0.074-0.142,0.213-0.194,0.35-0.24c1.163-0.384,2.296-0.835,3.361-1.445c0.373-0.214,0.729-0.455,1.022-0.778
		c0.127-0.14,0.226-0.298,0.32-0.495c0.11,0.201,0.163,0.395,0.225,0.585c0.19,0.59,0.298,1.198,0.42,1.804
		c0.062,0.307-0.024,0.56-0.227,0.786c-0.04,0.044-0.073,0.095-0.109,0.143c-0.51,0.51-1.037,1.002-1.623,1.426
		c-0.833,0.601-1.715,1.117-2.644,1.554c-0.038,0.018-0.076,0.037-0.116,0.052c-0.117,0.044-0.183,0.03-0.213-0.12
		c-0.128-0.625-0.177-1.261-0.278-1.889c-0.031-0.191-0.059-0.383-0.089-0.575C82.357,87.718,82.336,87.567,82.279,87.423z"/>
	<path fill="#FDFEFB" d="M81.683,77.074c-0.991-0.427-1.53-1.358-1.41-2.427c0.014-0.125,0.035-0.157,0.162-0.089
		c0.295,0.156,0.57,0.043,0.632-0.243c0.059-0.268-0.055-0.426-0.324-0.452c-0.054-0.005-0.109-0.009-0.192-0.016
		c0.138-0.269,0.328-0.477,0.539-0.665c0.229-0.204,0.507-0.328,0.786-0.448c0.167-0.106,0.361-0.099,0.544-0.111
		c0.437-0.027,0.873-0.003,1.287,0.16c0.45,0.177,0.788,0.493,1.063,0.883c0.66,0.931,0.468,2.3-0.412,3.028
		c-0.3,0.248-0.614,0.451-0.996,0.544c-0.125,0.03-0.254,0.013-0.378,0.045c-0.281-0.029-0.568,0.024-0.846-0.058
		c-0.052-0.015-0.104-0.031-0.156-0.046C81.883,77.143,81.778,77.123,81.683,77.074z"/>
	<path fill="#FDFEFB" d="M76.108,73.403c0.485-0.533,1.077-0.799,1.77-0.852c1.102-0.085,1.932,0.645,2.289,1.571
		c0.03,0.078,0.03,0.152,0.011,0.231c-0.123,0.516-0.097,1.025,0.107,1.516c0.05,0.12,0.008,0.165-0.08,0.214
		c-0.367,0.199-0.754,0.289-1.174,0.244c-0.359-0.038-0.714-0.01-1.057,0.114c-0.126,0.046-0.256,0.098-0.345,0.195
		c-0.118,0.128-0.243,0.125-0.392,0.09c-0.916-0.217-1.454-0.84-1.526-1.779c-0.018-0.236-0.013-0.471,0.027-0.708
		c0.026-0.152,0.072-0.174,0.212-0.127c0.282,0.094,0.482-0.032,0.515-0.305C76.485,73.636,76.373,73.502,76.108,73.403z"/>
	<path fill="#FDFEFB" d="M78.327,87.136c-0.01,0.058,0.021,0.105,0.041,0.156c0.031,0.082,0.012,0.14-0.052,0.208
		c-0.5,0.534-1.078,0.971-1.686,1.371c-0.078,0.051-0.147,0.129-0.256,0.109c0.288-0.757,0.552-1.524,0.879-2.266
		c0.122-0.277,0.262-0.545,0.394-0.817c0.033-0.036,0.071-0.033,0.111-0.013c0.116,0.048,0.136,0.164,0.176,0.261
		C78.069,86.474,78.197,86.805,78.327,87.136z"/>
	<path fill="#FDFEFB" d="M85.852,66.706c-0.146-0.482-0.435-0.858-0.877-1.155c0.436-0.066,0.816,0.018,1.173,0.21
		c1.025,0.552,1.148,1.42,0.891,2.354c-0.022,0.081-0.056,0.103-0.118,0.027c-0.247-0.303-0.548-0.547-0.863-0.777
		c-0.145-0.106-0.078-0.294-0.141-0.434C85.886,66.858,85.871,66.782,85.852,66.706z"/>
	<path fill="#FDFEFB" d="M85.666,67.149c-0.025-0.012-0.05-0.025-0.075-0.037c-0.06-0.061-0.156-0.051-0.217-0.11
		c-0.026-0.012-0.053-0.024-0.079-0.036c-0.074-0.03-0.134-0.087-0.213-0.108c-0.487-0.227-1.011-0.329-1.532-0.44
		c-0.015-0.011-0.031-0.015-0.05-0.018c-0.05-0.009-0.119,0.029-0.144-0.04c-0.024-0.066,0.05-0.088,0.079-0.13
		c0.342-0.313,0.744-0.51,1.189-0.628c0.078-0.021,0.139,0,0.205,0.039c0.533,0.317,0.831,0.793,0.948,1.393
		c0.03,0.051,0.033,0.098-0.025,0.132C85.722,67.176,85.693,67.168,85.666,67.149z"/>
	<path fill="#FDFEFB" d="M84.347,65.536c-0.449,0.142-0.828,0.398-1.159,0.729c-0.057,0.058-0.108,0.109-0.2,0.102
		c-0.472-0.034-0.945-0.036-1.423,0.005c0.384-0.811,1.79-1.272,2.821-0.934C84.498,65.521,84.393,65.517,84.347,65.536z"/>
	<path fill="#EEB700" d="M75.636,77.87c0.036-0.09,0.07-0.18,0.107-0.269c0.11-0.262,0.316-0.38,0.592-0.341
		c0.066,0.009,0.116,0.023,0.11,0.109c-0.025,0.367-0.047,0.734-0.072,1.128c-0.1-0.083-0.168-0.181-0.283-0.203
		c-0.059-0.012-0.134-0.031-0.159,0.041c-0.025,0.072,0.052,0.08,0.1,0.102c0.309,0.142,0.458,0.662,0.269,0.91
		c-0.08,0.105-0.145,0.095-0.241,0.032c-0.234-0.154-0.332-0.392-0.411-0.643c-0.014-0.046-0.028-0.091-0.043-0.137
		C75.546,78.352,75.549,78.109,75.636,77.87z"/>
	<path fill="#EEB700" d="M76.544,79.026c-0.021-0.715-0.001-1.375,0.107-2.029c0.048-0.292,0.053-0.289,0.339-0.19
		c0.114,0.039,0.284,0.036,0.331,0.112c0.054,0.088-0.084,0.209-0.118,0.324c-0.114,0.38-0.013,0.709,0.24,0.995
		c0.102,0.116,0.089,0.16-0.051,0.22C77.091,78.587,76.827,78.781,76.544,79.026z"/>
	<path fill="#FCFDFA" d="M78.41,86.949c-0.159-0.435-0.279-0.887-0.583-1.258c-0.061-0.075,0.039-0.147,0.105-0.171
		c0.336-0.12,0.652-0.282,0.993-0.469c-0.053,0.699-0.19,1.353-0.336,2.006c-0.036,0.036,0.012,0.126-0.074,0.124
		c-0.067-0.001-0.045-0.076-0.072-0.112C78.417,87.034,78.44,86.984,78.41,86.949z"/>
	<path fill="#060703" d="M82.984,77.282c0.431-0.087,0.836-0.228,1.195-0.498c1.118-0.838,1.255-2.39,0.293-3.404
		c-0.695-0.733-1.551-0.858-2.492-0.664c-0.035,0.007-0.07,0.012-0.106,0.017c0.03-0.102,0.128-0.089,0.196-0.099
		c0.488-0.071,0.977-0.101,1.453,0.076c0.061,0.023,0.092,0.007,0.1-0.057c0.894,0.352,1.46,0.993,1.605,1.943
		c0.231,1.516-0.906,2.513-1.934,2.765c-0.023,0.006-0.048,0.001-0.072,0.001C83.181,77.223,83.062,77.316,82.984,77.282z"/>
	<path fill="#FAFBF8" d="M86.423,84.626c-0.023-0.36-0.046-0.706-0.067-1.052c-0.004-0.067,0.035-0.075,0.093-0.072
		c0.383,0.019,0.552,0.287,0.393,0.629C86.756,84.315,86.59,84.518,86.423,84.626z"/>
	<path fill="#1D1908" d="M75.636,77.87c-0.052,0.241-0.042,0.484-0.029,0.727C75.487,78.35,75.513,78.108,75.636,77.87z"/>
	<path fill="#9B7800" d="M86.617,75.247c0-0.108,0-0.217,0-0.35c-0.05,0.072-0.081,0.118-0.113,0.165
		c0.007-0.11,0.045-0.207,0.145-0.322C86.65,74.931,86.676,75.09,86.617,75.247z"/>
	<path fill="#4C4E4B" d="M78.41,86.949c0.067,0.057,0.046,0.156,0.102,0.218c0.068-0.012,0.032-0.088,0.077-0.111
		c0.001,0.041,0.004,0.082,0.001,0.123c-0.003,0.035-0.012,0.076-0.056,0.077c-0.04,0.001-0.064-0.033-0.073-0.068
		C78.44,87.11,78.388,87.037,78.41,86.949z"/>
	<path fill="#A8AAA7" d="M83.437,66.23c-0.131,0.166,0.05,0.141,0.114,0.188c-0.023,0.002-0.048,0.009-0.07,0.004
		c-0.06-0.014-0.156,0.025-0.173-0.049C83.291,66.301,83.369,66.258,83.437,66.23z"/>
	<path fill="#181609" d="M85.192,67.034c-0.132-0.026-0.257-0.069-0.374-0.137C84.955,66.907,85.087,66.933,85.192,67.034z"/>
	<path fill="#0F0F08" d="M86.353,80.347c0.115-0.069,0.265-0.05,0.37-0.145C86.645,80.367,86.486,80.325,86.353,80.347z"/>
	<path fill="#525451" d="M87.199,75.755c0.016,0.045-0.029,0.104,0.031,0.139c-0.011,0.04-0.023,0.079-0.079,0.106
		C87.122,75.906,87.159,75.83,87.199,75.755z"/>
	<path fill="#181609" d="M85.666,67.149c0.022,0.002,0.044,0.004,0.066,0.006c0.105,0.015,0.038-0.083,0.074-0.113
		c0.07,0.056,0.067,0.136,0.01,0.179C85.755,67.267,85.701,67.207,85.666,67.149z"/>
	<path fill="#7E704A" d="M77.606,84.07c0.086,0.06,0.16,0.133,0.219,0.22C77.713,84.255,77.642,84.18,77.606,84.07z"/>
	<path fill="#B18800" d="M86.175,75.899c-0.007,0.109-0.028,0.212-0.11,0.293C86.076,76.084,86.112,75.986,86.175,75.899z"/>
	<path fill="#B8BBB7" d="M81.683,77.074c0.11,0.004,0.21,0.041,0.3,0.104C81.87,77.178,81.77,77.145,81.683,77.074z"/>
	<path fill="#0F0F08" d="M87.343,79.51c0.036-0.099,0.071-0.199,0.107-0.298C87.455,79.326,87.449,79.436,87.343,79.51z"/>
	<path fill="#1F1901" d="M85.955,80.393c-0.099-0.024-0.15-0.1-0.191-0.184C85.854,80.243,85.912,80.31,85.955,80.393z"/>
	<path fill="#6B6D6A" d="M84.347,65.536c0.016-0.032,0.084-0.043,0.04-0.099c0.04-0.006,0.101-0.021,0.091,0.042
		C84.468,65.539,84.407,65.555,84.347,65.536z"/>
	<path fill="#181609" d="M85.375,67.002c0.088,0.005,0.164,0.035,0.217,0.11c-0.06-0.012-0.121-0.024-0.181-0.037l0,0
		C85.399,67.051,85.387,67.027,85.375,67.002z"/>
	<path fill="#181609" d="M85.083,66.859c0.095-0.012,0.155,0.045,0.213,0.108C85.201,66.977,85.146,66.91,85.083,66.859z"/>
	<path fill="#9B7701" d="M80.263,73.937c0.037-0.027,0.074-0.054,0.111-0.081c-0.003,0.058-0.014,0.113-0.078,0.134
		C80.29,73.992,80.274,73.956,80.263,73.937z"/>
	<path fill="#3E403D" d="M85.852,66.706c0.045,0.068,0.067,0.143,0.066,0.225C85.848,66.87,85.839,66.791,85.852,66.706z"/>
	<path fill="#181609" d="M85.774,67.335c-0.076-0.015-0.138-0.054-0.193-0.107C85.666,67.225,85.734,67.254,85.774,67.335z"/>
	<path fill="#0F0F08" d="M86.721,80.202c0.06-0.039,0.12-0.078,0.18-0.116C86.873,80.174,86.812,80.211,86.721,80.202z"/>
	<path fill="#1F1901" d="M85.775,80.058c0.098-0.001,0.109,0.085,0.145,0.146C85.834,80.193,85.82,80.11,85.775,80.058z"/>
	<path fill="#686B68" d="M77.758,85.884c-0.037,0.004-0.074,0.008-0.111,0.013c-0.007-0.034,0.005-0.06,0.038-0.068
		C77.729,85.818,77.75,85.844,77.758,85.884z"/>
	<path fill="#46402A" d="M75.571,82.287c-0.006,0.068-0.031,0.128-0.081,0.176C75.487,82.39,75.501,82.325,75.571,82.287z"/>
	<path fill="#B7B9B6" d="M85.806,67.042c-0.01,0.046,0.036,0.098-0.004,0.138c-0.023,0.023-0.055,0.009-0.071-0.024
		c0.048-0.028,0.029-0.082,0.048-0.121C85.788,67.037,85.797,67.039,85.806,67.042z"/>
	<path fill="#181609" d="M85.443,67.159c-0.051-0.026-0.101-0.052-0.152-0.079c0.04-0.002,0.08-0.003,0.12-0.005c0,0,0,0,0,0
		C85.421,67.103,85.432,67.131,85.443,67.159z"/>
	<path fill="#BABCB9" d="M82.279,87.423c0.095,0.135,0.116,0.286,0.099,0.446C82.32,87.726,82.306,87.573,82.279,87.423z"/>
	<path fill="#0C0A00" d="M86.126,79.34c0.006-0.388,0.178-0.701,0.443-0.968c0.096-0.097,0.229-0.12,0.356-0.076
		c0.136,0.047,0.201,0.168,0.243,0.299c0.015,0.045,0.004,0.085-0.045,0.104c-0.042,0.016-0.069-0.006-0.091-0.039
		c-0.003-0.005-0.006-0.01-0.01-0.015c-0.188-0.262-0.305-0.259-0.501,0.008c-0.192,0.263-0.258,0.556-0.22,0.877
		c0.007,0.061,0.049,0.148-0.049,0.165c-0.1,0.018-0.089-0.08-0.102-0.138C86.135,79.485,86.133,79.412,86.126,79.34z"/>
	<path fill="#020301" d="M78.362,83.902c-0.2,0.003-0.352-0.141-0.353-0.334c0-0.208,0.13-0.341,0.339-0.346
		c0.193-0.004,0.349,0.149,0.347,0.341C78.693,83.745,78.541,83.899,78.362,83.902z"/>
	<path fill="#010200" d="M83.29,77.266c0.042-0.021,0.081-0.026,0.122,0.003C83.369,77.292,83.33,77.296,83.29,77.266z"/>
</g>
</svg>
